<mxfile host="app.diagrams.net" modified="2023-05-03T03:02:59.752Z" agent="Mozilla/5.0 (Windows NT 10.0; Win64; x64) AppleWebKit/537.36 (KHTML, like Gecko) Chrome/112.0.0.0 Safari/537.36" etag="KPbwGPf5MEYnh0HlyGrg" version="21.2.6" type="device">
  <diagram name="Page-1" id="fHcsFwyU_qE0ZllI3vEE">
    <mxGraphModel dx="1114" dy="688" grid="1" gridSize="10" guides="1" tooltips="1" connect="1" arrows="1" fold="1" page="1" pageScale="1" pageWidth="850" pageHeight="1100" math="0" shadow="0">
      <root>
        <mxCell id="0" />
        <mxCell id="1" parent="0" />
        <mxCell id="FVlr-ZKy2F-uu0cAg_cv-1" value="q0" style="ellipse;whiteSpace=wrap;html=1;aspect=fixed;" vertex="1" parent="1">
          <mxGeometry x="80" y="720" width="80" height="80" as="geometry" />
        </mxCell>
        <mxCell id="FVlr-ZKy2F-uu0cAg_cv-2" value="q6" style="ellipse;whiteSpace=wrap;html=1;aspect=fixed;" vertex="1" parent="1">
          <mxGeometry x="230" y="330" width="80" height="80" as="geometry" />
        </mxCell>
        <mxCell id="FVlr-ZKy2F-uu0cAg_cv-3" value="qâˆ…" style="ellipse;whiteSpace=wrap;html=1;aspect=fixed;" vertex="1" parent="1">
          <mxGeometry x="560" y="430" width="80" height="80" as="geometry" />
        </mxCell>
        <mxCell id="FVlr-ZKy2F-uu0cAg_cv-4" value="q4" style="ellipse;whiteSpace=wrap;html=1;aspect=fixed;" vertex="1" parent="1">
          <mxGeometry x="690" y="630" width="80" height="80" as="geometry" />
        </mxCell>
        <mxCell id="FVlr-ZKy2F-uu0cAg_cv-5" value="q2" style="ellipse;whiteSpace=wrap;html=1;aspect=fixed;" vertex="1" parent="1">
          <mxGeometry x="460" y="190" width="80" height="80" as="geometry" />
        </mxCell>
        <mxCell id="FVlr-ZKy2F-uu0cAg_cv-6" value="q5" style="ellipse;whiteSpace=wrap;html=1;aspect=fixed;" vertex="1" parent="1">
          <mxGeometry x="470" y="310" width="80" height="80" as="geometry" />
        </mxCell>
        <mxCell id="FVlr-ZKy2F-uu0cAg_cv-7" value="q1" style="ellipse;whiteSpace=wrap;html=1;aspect=fixed;" vertex="1" parent="1">
          <mxGeometry x="280" y="210" width="80" height="80" as="geometry" />
        </mxCell>
        <mxCell id="FVlr-ZKy2F-uu0cAg_cv-8" value="q25" style="ellipse;whiteSpace=wrap;html=1;aspect=fixed;" vertex="1" parent="1">
          <mxGeometry x="700" y="360" width="80" height="80" as="geometry" />
        </mxCell>
        <mxCell id="FVlr-ZKy2F-uu0cAg_cv-9" value="q23" style="ellipse;whiteSpace=wrap;html=1;aspect=fixed;" vertex="1" parent="1">
          <mxGeometry x="270" y="670" width="80" height="80" as="geometry" />
        </mxCell>
        <mxCell id="FVlr-ZKy2F-uu0cAg_cv-10" value="q24" style="ellipse;whiteSpace=wrap;html=1;aspect=fixed;" vertex="1" parent="1">
          <mxGeometry x="170" y="430" width="80" height="80" as="geometry" />
        </mxCell>
        <mxCell id="FVlr-ZKy2F-uu0cAg_cv-11" value="q14" style="ellipse;whiteSpace=wrap;html=1;aspect=fixed;" vertex="1" parent="1">
          <mxGeometry x="270" y="810" width="80" height="80" as="geometry" />
        </mxCell>
        <mxCell id="FVlr-ZKy2F-uu0cAg_cv-12" value="q15" style="ellipse;whiteSpace=wrap;html=1;aspect=fixed;" vertex="1" parent="1">
          <mxGeometry x="380" y="400" width="80" height="80" as="geometry" />
        </mxCell>
        <mxCell id="FVlr-ZKy2F-uu0cAg_cv-13" value="q3" style="ellipse;whiteSpace=wrap;html=1;aspect=fixed;" vertex="1" parent="1">
          <mxGeometry x="500" y="630" width="80" height="80" as="geometry" />
        </mxCell>
        <mxCell id="FVlr-ZKy2F-uu0cAg_cv-14" value="A" style="endArrow=classic;html=1;rounded=0;exitX=1;exitY=0.5;exitDx=0;exitDy=0;entryX=0;entryY=0.5;entryDx=0;entryDy=0;" edge="1" parent="1" source="FVlr-ZKy2F-uu0cAg_cv-1" target="FVlr-ZKy2F-uu0cAg_cv-9">
          <mxGeometry width="50" height="50" relative="1" as="geometry">
            <mxPoint x="400" y="760" as="sourcePoint" />
            <mxPoint x="450" y="710" as="targetPoint" />
          </mxGeometry>
        </mxCell>
        <mxCell id="FVlr-ZKy2F-uu0cAg_cv-15" value="B" style="endArrow=classic;html=1;rounded=0;exitX=1;exitY=0.5;exitDx=0;exitDy=0;entryX=0;entryY=0.5;entryDx=0;entryDy=0;" edge="1" parent="1" source="FVlr-ZKy2F-uu0cAg_cv-1" target="FVlr-ZKy2F-uu0cAg_cv-11">
          <mxGeometry width="50" height="50" relative="1" as="geometry">
            <mxPoint x="400" y="760" as="sourcePoint" />
            <mxPoint x="450" y="710" as="targetPoint" />
          </mxGeometry>
        </mxCell>
        <mxCell id="FVlr-ZKy2F-uu0cAg_cv-16" value="A" style="endArrow=classic;html=1;rounded=0;exitX=1;exitY=0.5;exitDx=0;exitDy=0;entryX=0;entryY=0.5;entryDx=0;entryDy=0;" edge="1" parent="1" source="FVlr-ZKy2F-uu0cAg_cv-9" target="FVlr-ZKy2F-uu0cAg_cv-13">
          <mxGeometry width="50" height="50" relative="1" as="geometry">
            <mxPoint x="400" y="630" as="sourcePoint" />
            <mxPoint x="450" y="580" as="targetPoint" />
          </mxGeometry>
        </mxCell>
        <mxCell id="FVlr-ZKy2F-uu0cAg_cv-17" value="B" style="endArrow=classic;html=1;rounded=0;exitX=1;exitY=0.5;exitDx=0;exitDy=0;entryX=0;entryY=0.5;entryDx=0;entryDy=0;" edge="1" parent="1" source="FVlr-ZKy2F-uu0cAg_cv-13" target="FVlr-ZKy2F-uu0cAg_cv-4">
          <mxGeometry width="50" height="50" relative="1" as="geometry">
            <mxPoint x="400" y="510" as="sourcePoint" />
            <mxPoint x="450" y="460" as="targetPoint" />
          </mxGeometry>
        </mxCell>
        <mxCell id="FVlr-ZKy2F-uu0cAg_cv-19" value="" style="endArrow=classic;html=1;rounded=0;exitX=0;exitY=0;exitDx=0;exitDy=0;entryX=1;entryY=0;entryDx=0;entryDy=0;edgeStyle=orthogonalEdgeStyle;elbow=vertical;curved=1;" edge="1" parent="1" source="FVlr-ZKy2F-uu0cAg_cv-13" target="FVlr-ZKy2F-uu0cAg_cv-13">
          <mxGeometry width="50" height="50" relative="1" as="geometry">
            <mxPoint x="400" y="510" as="sourcePoint" />
            <mxPoint x="450" y="460" as="targetPoint" />
            <Array as="points">
              <mxPoint x="540" y="550" />
            </Array>
          </mxGeometry>
        </mxCell>
      </root>
    </mxGraphModel>
  </diagram>
</mxfile>
